<?xml version="1.0" encoding="UTF-8" standalone="no"?><svg id="uuid-8b1a7434-3f25-4240-99ea-32802566268d" viewBox="0 0 40.000001 40.000001" version="1.1" width="16" height="16" xmlns="http://www.w3.org/2000/svg"><defs id="defs1"><style id="style1">.uuid-bfc5ec67-7ec3-46b7-a9be-83da559b2915{fill:#232a68;}</style></defs><g id="uuid-39a271af-9167-4f03-a49f-1d74ff91ecc8" transform="matrix(0.08728119,0,0,0.08728119,2.0000002,2.0000002)"><g id="g6"><g id="g2"><path class="uuid-bfc5ec67-7ec3-46b7-a9be-83da559b2915" d="M 206.23,0 C 92.33,0 0,92.33 0,206.23 c 0,113.9 92.33,206.23 206.23,206.23 113.9,0 206.23,-92.33 206.23,-206.23 C 412.46,92.33 320.13,0 206.23,0 Z m 0,392.62 c -102.94,0 -186.39,-83.45 -186.39,-186.39 0,-102.94 83.45,-186.39 186.39,-186.39 102.94,0 186.39,83.45 186.39,186.39 0,102.94 -83.45,186.39 -186.39,186.39 z" id="path1" /><path class="uuid-bfc5ec67-7ec3-46b7-a9be-83da559b2915" d="m 206.23,30.89 c -96.84,0 -175.34,78.5 -175.34,175.34 0,96.84 78.5,175.34 175.34,175.34 96.84,0 175.34,-78.5 175.34,-175.34 0,-96.84 -78.51,-175.34 -175.34,-175.34 z m 0,341.48 c -91.76,0 -166.15,-74.39 -166.15,-166.15 0,-91.76 74.39,-166.14 166.15,-166.14 91.76,0 166.15,74.39 166.15,166.15 0,91.76 -74.39,166.15 -166.15,166.15 z" id="path2" /></g><g id="g5"><path class="uuid-bfc5ec67-7ec3-46b7-a9be-83da559b2915" d="m 149.7,191.19 c -2.12,-11.04 -11.25,-17.17 -22.12,-17.17 -14.71,0 -25.71,11.38 -25.71,32.08 0,20.7 11.04,32.08 25.67,32.08 10.79,0 19.96,-6 22.17,-16.92 l 13,0.04 c -2.79,16.87 -16.5,28.62 -35.25,28.62 -22.17,0 -38.37,-16.54 -38.37,-43.83 0,-27.29 16.29,-43.83 38.37,-43.83 18.04,0 32.33,10.67 35.25,28.92 h -13 z" id="path3" /><path class="uuid-bfc5ec67-7ec3-46b7-a9be-83da559b2915" d="m 240.12,163.44 v 56.46 c 0,19.25 -15.04,30.29 -33.92,30.29 -18.88,0 -33.87,-11.04 -33.87,-30.29 v -56.46 h 12.88 v 56.25 c 0,11.96 9.58,18.67 21,18.67 11.42,0 21.04,-6.71 21.04,-18.67 v -56.25 h 12.88 z" id="path4" /><path class="uuid-bfc5ec67-7ec3-46b7-a9be-83da559b2915" d="m 252.31,163.44 h 56.76 v 11.08 h -43.88 v 26 h 41.09 v 11.04 h -41.09 v 26.12 h 44.38 v 11.08 h -57.25 v -85.33 z" id="path5" /></g></g></g></svg>