<?xml version="1.0" encoding="UTF-8" standalone="no"?>
<svg
   xmlns:dc="http://purl.org/dc/elements/1.1/"
   xmlns:cc="http://creativecommons.org/ns#"
   xmlns:rdf="http://www.w3.org/1999/02/22-rdf-syntax-ns#"
   xmlns:svg="http://www.w3.org/2000/svg"
   xmlns="http://www.w3.org/2000/svg"
   xmlns:sodipodi="http://sodipodi.sourceforge.net/DTD/sodipodi-0.dtd"
   xmlns:inkscape="http://www.inkscape.org/namespaces/inkscape"
   version="1.1"
   viewBox="0 0 1.5133356 1.5133356"
   width="16"
   height="16"
   id="svg38"
   sodipodi:docname="cue_logo.svg"
   inkscape:version="1.0.2 (e86c870879, 2021-01-15)">
  <sodipodi:namedview
     pagecolor="#ffffff"
     bordercolor="#666666"
     borderopacity="1"
     objecttolerance="10"
     gridtolerance="10"
     guidetolerance="10"
     inkscape:pageopacity="0"
     inkscape:pageshadow="2"
     inkscape:window-width="3840"
     inkscape:window-height="2061"
     id="namedview40"
     showgrid="false"
     inkscape:zoom="22.939383"
     inkscape:cx="30.876836"
     inkscape:cy="25.976319"
     inkscape:window-x="0"
     inkscape:window-y="0"
     inkscape:window-maximized="1"
     inkscape:current-layer="svg38"
     inkscape:document-rotation="0" />
  <defs
     id="defs2" />
  <metadata
     id="metadata4"> Produced by OmniGraffle 7.10.1
    <dc:date>2019-08-10 23:02:54 +0000</dc:date>
<rdf:RDF>
  <cc:Work
     rdf:about="">
    <dc:format>image/svg+xml</dc:format>
    <dc:type
       rdf:resource="http://purl.org/dc/dcmitype/StillImage" />
    <dc:title></dc:title>
  </cc:Work>
</rdf:RDF>
</metadata>
  <g
     id="Canvas_1"
     fill="none"
     stroke-opacity="1"
     fill-opacity="1"
     stroke="none"
     stroke-dasharray="none"
     transform="matrix(0.00347021,0,0,0.00347021,0.16963788,0.16963788)">
    <title
       id="title6">Canvas 1</title>
    <g
       id="Canvas_1: Layer 1">
      <title
         id="title8">Layer 1</title>
      <g
         id="Graphic_13">
        <circle
           cx="169.16273"
           cy="169.16273"
           r="177.16302"
           fill="#ffffff"
           id="circle10" />
      </g>
      <g
         id="Graphic_2" />
      <g
         id="Group_3">
        <g
           id="Graphic_10">
          <rect
             x="-8"
             y="-8"
             width="354.32547"
             height="354.32547"
             fill="#000000"
             fill-opacity="0"
             id="rect14" />
        </g>
        <g
           id="Graphic_9">
          <path
             d="m 13.191601,168.6903 c 0,-85.878115 69.617969,-155.49607 155.496059,-155.49607 41.24011,0 80.79114,16.382574 109.95232,45.54374 29.16116,29.16117 45.54372,68.71221 45.54372,109.95233 0,85.8781 -69.61794,155.49605 -155.49604,155.49605 -85.8781,0 -155.496059,-69.61795 -155.496059,-155.49605 z"
             fill="#000000"
             fill-opacity="0"
             id="path17" />
        </g>
        <g
           id="Graphic_8">
          <path
             d="m 13.191601,168.6903 c 0,-85.878115 69.617969,-155.49607 155.496059,-155.49607 41.24011,0 80.79114,16.382574 109.95232,45.54374 29.16116,29.16117 45.54372,68.71221 45.54372,109.95233 0,85.8781 -69.61794,155.49605 -155.49604,155.49605 -85.8781,0 -155.496059,-69.61795 -155.496059,-155.49605 z"
             stroke="#4a86e8"
             stroke-linecap="butt"
             stroke-linejoin="round"
             stroke-width="24"
             id="path20" />
        </g>
        <g
           id="Graphic_7">
          <path
             d="m 19.790026,168.6903 c 0,-82.23391 66.663744,-148.89765 148.897644,-148.89765 39.49011,0 77.36281,15.687384 105.28651,43.61111 27.92372,27.92372 43.61112,65.79642 43.61112,105.28653 0,82.23389 -66.66374,148.89761 -148.89764,148.89761 -82.2339,0 -148.897635,-66.66372 -148.897635,-148.89761 z"
             fill="#000000"
             fill-opacity="0"
             id="path23" />
        </g>
        <g
           id="Graphic_6">
          <path
             d="m 19.790026,168.6903 c 0,-82.23391 66.663744,-148.89765 148.897644,-148.89765 39.49011,0 77.36281,15.687384 105.28651,43.61111 27.92372,27.92372 43.61112,65.79642 43.61112,105.28653 0,82.23389 -66.66374,148.89761 -148.89764,148.89761 -82.2339,0 -148.897635,-66.66372 -148.897635,-148.89761 z"
             stroke="#ffffff"
             stroke-linecap="butt"
             stroke-linejoin="round"
             stroke-width="3"
             id="path26" />
        </g>
        <g
           id="Graphic_5">
          <rect
             x="73.506561"
             y="109.33858"
             width="181.88977"
             height="112.40945"
             fill="#000000"
             fill-opacity="0"
             id="rect29" />
        </g>
        <g
           id="Graphic_4">
          <path
             d="m 115.1741,136.81046 c 5.78125,0 10.84375,1.65104 15.1875,4.95312 4.35417,3.29167 6.94792,7.80209 7.78125,13.53125 h -5.42187 c -1.07292,-4.40625 -3.20313,-7.8125 -6.39063,-10.21875 -3.1875,-2.40625 -6.91667,-3.60937 -11.1875,-3.60937 -6.61458,0 -11.84896,2.34896 -15.70312,7.04687 -3.85417,4.69792 -5.78125,10.71876 -5.78125,18.0625 0,7.21876 1.90104,13.21355 5.70312,17.98438 3.80208,4.76042 9.0625,7.14062 15.78125,7.14062 4.94792,0 9.08854,-1.67188 12.42188,-5.01562 3.33333,-3.35416 5.3125,-7.77604 5.9375,-13.26563 h 5.42187 c -0.80208,7.15625 -3.32812,12.77084 -7.57812,16.84375 -4.23959,4.0625 -9.63021,6.09376 -16.17188,6.09376 -8.25,0 -14.80729,-2.80209 -19.67187,-8.40626 -4.85417,-5.60416 -7.28125,-12.72916 -7.28125,-21.375 0,-8.71874 2.45312,-15.85937 7.35937,-21.42187 4.91667,-5.5625 11.44792,-8.34375 19.59375,-8.34375 z m 36.95313,1.21875 v 35.73437 c 0,5.83334 1.35417,10.28126 4.0625,13.34376 2.70833,3.0625 6.92707,4.59374 12.65625,4.59374 5.76042,0 10,-1.51041 12.71874,-4.53125 2.71876,-3.02083 4.07813,-7.48958 4.07813,-13.40625 v -35.73437 h 5.46875 v 36.90625 c 0,6.30208 -1.89062,11.44792 -5.67187,15.4375 -3.77083,3.98958 -9.30209,5.98438 -16.59375,5.98438 -4.44792,0 -8.34896,-0.83334 -11.70313,-2.5 -3.34375,-1.67709 -5.92187,-4.19271 -7.73437,-7.54688 -1.80208,-3.36458 -2.70313,-7.15626 -2.70313,-11.375 v -36.90625 z m 89.38281,0 v 4.64062 h -33.98438 v 20.625 h 31.82813 v 4.65625 h -31.82813 v 22.53126 h 34.375 v 4.65624 H 202.0569 v -57.10937 z"
             fill="#4a86e8"
             id="path32" />
        </g>
      </g>
    </g>
  </g>
</svg>
